<svg width="23" height="26" viewBox="0 0 23 26" fill="none" xmlns="http://www.w3.org/2000/svg">
<path fill-rule="evenodd" clip-rule="evenodd" d="M22.655 6.65597L22.4761 6.33097C22.2453 5.93797 21.9199 5.61134 21.5306 5.38198L12.9567 0.350999C12.5685 0.121874 12.1278 0.000805997 11.6789 0H11.3083C10.8595 0.000805997 10.4187 0.121874 10.0306 0.350999L1.45667 5.39498C1.06946 5.62281 0.747832 5.95004 0.523889 6.34397L0.345 6.66897C0.119792 7.06396 0.000792222 7.51233 0 7.96897V18.0439C0.000792222 18.5006 0.119792 18.949 0.345 19.3439L0.523889 19.6689C0.753621 20.0583 1.07396 20.3842 1.45667 20.6179L10.0433 25.6489C10.4296 25.8828 10.8716 26.0042 11.3211 25.9999H11.6789C12.1278 25.9991 12.5685 25.8781 12.9567 25.6489L21.5306 20.6049C21.9216 20.3822 22.2444 20.0537 22.4633 19.6559L22.655 19.3309C22.8775 18.9348 22.9963 18.4872 23 18.0309V7.95597C22.9992 7.49933 22.8803 7.05096 22.655 6.65597ZM11.3083 2.59999H11.6789L19.1667 6.99397L11.5 11.492L3.83333 6.99397L11.3083 2.59999ZM12.7778 22.7499L20.2528 18.3559L20.4444 18.0309V9.24296L12.7778 13.7539V22.7499Z" fill="black"/>
</svg>
