<svg width="150" height="150" viewBox="0 0 150 150" fill="none" xmlns="http://www.w3.org/2000/svg">
<g clip-path="url(#clip0_1163_9602)">
<path fill-rule="evenodd" clip-rule="evenodd" d="M150 136.313C150.055 133.135 149.385 129.987 148.042 127.106C146.7 124.226 144.719 121.689 142.25 119.688C140.604 118.713 138.809 118.017 136.938 117.625C147 109.75 145.688 90.9375 132.313 88.1875C131.775 88.1254 131.233 88.2651 130.792 88.5794C130.351 88.8938 130.042 89.3606 129.926 89.8894C129.809 90.4182 129.893 90.9715 130.16 91.4422C130.428 91.9129 130.861 92.2675 131.375 92.4375C141.813 94.9375 140.75 117.438 121.438 113.438C109.375 110.75 111.5 89.3125 127.688 90.5C128.15 90.4755 128.589 90.2859 128.924 89.9658C129.259 89.6456 129.468 89.216 129.513 88.7549C129.558 88.2938 129.437 87.8317 129.171 87.4524C128.905 87.0731 128.512 86.8017 128.062 86.6875C124.201 86.0513 120.238 86.7228 116.802 88.5955C113.367 90.4681 110.654 93.4347 109.096 97.0243C107.539 100.614 107.224 104.621 108.203 108.41C109.182 112.199 111.398 115.552 114.5 117.938C111.661 118.899 109.1 120.541 107.041 122.72C104.982 124.899 103.487 127.548 102.688 130.438C100.61 126.292 97.0692 123.063 92.75 121.375C85.625 118.625 86.5 120.625 89.8125 117.813C102.75 107.188 100.813 81.8125 83.5625 78.3125C83.0246 78.2504 82.4827 78.3901 82.0418 78.7044C81.6008 79.0188 81.2922 79.4856 81.1756 80.0144C81.0589 80.5432 81.1425 81.0965 81.4103 81.5672C81.678 82.0379 82.1109 82.3925 82.625 82.5625C99.5 86.8125 95.9375 121.563 68.1875 114.813C50.0625 111.063 52.6875 77.875 77.1875 79.875C77.4337 79.8996 77.6824 79.8755 77.9193 79.804C78.1562 79.7326 78.3767 79.6151 78.5683 79.4584C78.7598 79.3017 78.9186 79.1088 79.0355 78.8908C79.1525 78.6727 79.2254 78.4337 79.25 78.1875C79.2746 77.9413 79.2505 77.6926 79.179 77.4557C79.1076 77.2188 78.9901 76.9983 78.8334 76.8068C78.6767 76.6152 78.4838 76.4565 78.2658 76.3395C78.0477 76.2225 77.8087 76.1496 77.5625 76.125C72.1427 75.2973 66.6033 76.3652 61.8796 79.1484C57.1559 81.9315 53.5373 86.2595 51.6348 91.4014C49.7323 96.5434 49.6624 102.184 51.4369 107.372C53.2115 112.559 56.7217 116.976 61.375 119.875C57.6979 121.424 54.2825 123.532 51.25 126.125C45 131.438 48.9375 132.063 45.625 125.563C43.963 122.139 41.0569 119.479 37.5 118.125C34.6875 117.25 35.125 117.625 35.5 117.313C38.9647 114.288 41.1693 110.075 41.6784 105.504C42.1876 100.933 40.9642 96.3376 38.25 92.625C35.5625 89.5625 28.875 85.875 28 89.75C27.9023 90.3029 28.0149 90.8723 28.3156 91.3464C28.6162 91.8205 29.0833 92.1651 29.625 92.3125C37.5 94.5 37.5 107.313 31.25 112.063C29.5062 113.096 27.5651 113.752 25.552 113.989C23.5389 114.226 21.4985 114.038 19.5625 113.438C7.50002 110.75 9.56252 89.3125 25.8125 90.5C26.2752 90.4755 26.7138 90.2859 27.0487 89.9658C27.3837 89.6456 27.5928 89.216 27.6381 88.7549C27.6835 88.2938 27.5621 87.8317 27.2959 87.4524C27.0298 87.0731 26.6366 86.8017 26.1875 86.6875C22.3264 86.0513 18.3635 86.7228 14.9275 88.5955C11.4915 90.4681 8.77939 93.4347 7.22148 97.0243C5.66357 100.614 5.34913 104.621 6.32805 108.41C7.30698 112.199 9.5232 115.552 12.625 117.938C8.80606 119.32 5.46509 121.772 3.00001 125C1.68261 126.773 0.737686 128.795 0.222117 130.943C-0.293453 133.092 -0.369003 135.322 1.42157e-05 137.5C0.0811794 137.946 0.316451 138.35 0.664812 138.641C1.01317 138.932 1.45252 139.091 1.90626 139.091C2.36001 139.091 2.79936 138.932 3.14772 138.641C3.49608 138.35 3.73135 137.946 3.81251 137.5C4.99595 133.754 7.15276 130.389 10.0625 127.75C12.1702 125.064 14.7037 122.742 17.5625 120.875C21.302 121.699 25.1867 121.592 28.875 120.563C32.6344 122.204 35.891 124.814 38.3125 128.125C40.5131 130.736 42.3428 133.639 43.75 136.75C42.3441 140.191 41.849 143.937 42.3125 147.625C42.3937 148.071 42.629 148.475 42.9773 148.766C43.3257 149.057 43.765 149.216 44.2188 149.216C44.6725 149.216 45.1119 149.057 45.4602 148.766C45.8086 148.475 46.0438 148.071 46.125 147.625C46.5544 143.927 48.0043 140.421 50.3125 137.5C53.7627 133.012 57.7038 128.924 62.0625 125.313L66.1875 122.563C66.4693 122.48 66.7267 122.329 66.9375 122.125C71.8051 123.3 76.8824 123.3 81.75 122.125C88.784 125.354 94.6069 130.739 98.375 137.5C100.329 140.653 101.942 144.005 103.188 147.5C103.361 147.995 103.706 148.411 104.16 148.672C104.615 148.934 105.148 149.023 105.663 148.925C106.177 148.826 106.64 148.546 106.966 148.136C107.291 147.725 107.459 147.211 107.438 146.688C107.091 143.918 106.527 141.181 105.75 138.5C106.563 137.313 105.375 136.938 108.375 132.25C108.813 131.625 112.188 127.938 112.625 127.438C114.701 124.723 117.24 122.395 120.125 120.563C123.804 121.356 127.621 121.248 131.25 120.25C134.858 122.036 137.922 124.755 140.125 128.125C142.448 130.958 144.343 134.117 145.75 137.5C145.907 138.064 146.282 138.542 146.792 138.829C147.302 139.116 147.905 139.189 148.469 139.031C149.032 138.874 149.51 138.499 149.797 137.989C150.085 137.479 150.157 136.876 150 136.313Z" fill="#020202"/>
<path fill-rule="evenodd" clip-rule="evenodd" d="M21.1875 12.9998C21.1875 8.4373 23 8.1873 21.1875 6.7498C19.375 5.3123 18.75 5.8748 17.375 9.9998C16.5625 12.9998 16.375 17.8123 16 19.6248C12.0357 39.3395 11.423 59.5814 14.1875 79.4998C14.208 79.7994 14.2874 80.092 14.421 80.3609C14.5546 80.6298 14.7398 80.8698 14.9662 81.0671C15.1925 81.2645 15.4555 81.4153 15.7401 81.5109C16.0248 81.6066 16.3255 81.6453 16.625 81.6248C16.9246 81.6043 17.2172 81.525 17.4861 81.3913C17.7551 81.2578 17.995 81.0725 18.1924 80.8462C18.3897 80.6198 18.5405 80.3568 18.6362 80.0722C18.7319 79.7876 18.7705 79.4869 18.75 79.1873C17.6875 60.4998 21.125 15.7498 21.1875 12.9998Z" fill="#020202"/>
<path fill-rule="evenodd" clip-rule="evenodd" d="M120.625 28.8749C88.9879 26.9411 57.2621 26.9411 25.625 28.8749C22.125 29.3749 22.125 32.7499 25.625 32.9374C36.625 32.9374 48.5 34.4374 70.25 34.4999C92 34.5624 105.625 33.4374 121 33.0624C121.443 32.8909 121.817 32.5802 122.068 32.177C122.318 31.7739 122.431 31.3002 122.389 30.8275C122.346 30.3548 122.151 29.9086 121.833 29.5564C121.515 29.2042 121.091 28.965 120.625 28.8749Z" fill="#D97B38"/>
<path fill-rule="evenodd" clip-rule="evenodd" d="M31.25 7.06241C49.5 7.06241 68.3125 5.99991 86.5625 7.06241C99.875 7.81241 121.5 6.56241 129.188 12.6874C130.813 13.9374 131.375 26.4999 131.875 30.5624C134.274 46.1076 134.924 61.8725 133.813 77.5624C133.755 78.0597 133.896 78.5596 134.207 78.9523C134.518 79.345 134.972 79.5981 135.469 79.6562C135.966 79.7142 136.466 79.5723 136.859 79.2617C137.251 78.9511 137.505 78.4972 137.563 77.9999C139.486 62.0473 139.696 45.9346 138.188 29.9374C137.688 23.3124 138.5 11.1874 133.688 7.06241C122.938 -1.18759 101.125 1.18741 86.6875 0.624907C67.9375 0.124907 49.1875 1.93741 30.9375 2.74991C30.4284 2.86668 29.9779 3.16178 29.6674 3.58183C29.357 4.00189 29.207 4.51917 29.2448 5.04014C29.2825 5.56111 29.5055 6.05138 29.8733 6.42229C30.241 6.79319 30.7294 7.02025 31.25 7.06241Z" fill="#020202"/>
<path fill-rule="evenodd" clip-rule="evenodd" d="M31.25 20.3124C31.6429 20.7528 32.1243 21.1052 32.6629 21.3465C33.2014 21.5878 33.7849 21.7126 34.375 21.7126C34.9652 21.7126 35.5486 21.5878 36.0872 21.3465C36.6257 21.1052 37.1072 20.7528 37.5 20.3124C37.9763 19.3544 38.1242 18.2663 37.9209 17.2159C37.7176 16.1654 37.1744 15.2111 36.375 14.4999C32.375 11.8749 27.4375 16.3749 31.25 20.3124Z" fill="#020202"/>
<path fill-rule="evenodd" clip-rule="evenodd" d="M44.8125 18.75C45.2105 19.1818 45.6937 19.5264 46.2315 19.7622C46.7694 19.9979 47.3502 20.1196 47.9375 20.1196C48.5247 20.1196 49.1056 19.9979 49.6435 19.7622C50.1813 19.5264 50.6645 19.1818 51.0625 18.75C51.6596 17.7527 51.8807 16.5747 51.6859 15.4287C51.4911 14.2827 50.8932 13.244 50 12.5C46.1875 10.3125 41.25 14.75 44.8125 18.75Z" fill="#020202"/>
<path fill-rule="evenodd" clip-rule="evenodd" d="M59.9375 18.7498C60.3304 19.1902 60.8118 19.5426 61.3504 19.7839C61.8889 20.0252 62.4724 20.1499 63.0625 20.1499C63.6527 20.1499 64.2361 20.0252 64.7747 19.7839C65.3132 19.5426 65.7947 19.1902 66.1875 18.7498C66.9375 17.9998 67.1875 14.0623 65.125 12.9373C61.3125 10.3123 56.25 14.7498 59.9375 18.7498Z" fill="#020202"/>
</g>
<defs>
<clipPath id="clip0_1163_9602">
<rect width="150" height="150" fill="white"/>
</clipPath>
</defs>
</svg>
