<svg width="135" height="140" viewBox="0 0 135 140" fill="none" xmlns="http://www.w3.org/2000/svg">
<path d="M59.0167 16.4499C62.575 16.4499 66.3084 17.2665 69.6917 17.2082L104.692 16.1582C110 16.1582 115.25 16.1582 120.5 15.8082C124.058 15.8082 127.617 15.3999 131.175 15.0499C131.706 15.0052 132.199 14.7543 132.548 14.351C132.897 13.9476 133.074 13.4238 133.042 12.8915C132.983 12.3707 132.726 11.8924 132.324 11.5558C131.922 11.2192 131.406 11.0499 130.883 11.0832H120.5C115.308 11.0832 110.117 10.4415 104.808 10.0915C98.8432 9.77059 92.8652 9.77059 86.9 10.0915C81.0667 10.4999 75.2334 11.3749 69.4 12.1332C66.1334 12.5999 62.5167 12.1332 59.075 12.5415C57.4188 12.6136 55.7756 12.868 54.175 13.2999C53.9318 13.332 53.698 13.4149 53.4888 13.5432C53.2797 13.6716 53.0999 13.8424 52.9611 14.0448C52.8222 14.2471 52.7275 14.4763 52.683 14.7177C52.6386 14.959 52.6453 15.2069 52.7029 15.4455C52.7605 15.684 52.8676 15.9077 53.0172 16.1022C53.1669 16.2966 53.3558 16.4574 53.5716 16.5742C53.7874 16.6909 54.0254 16.7609 54.2701 16.7797C54.5147 16.7985 54.7606 16.7656 54.9917 16.6832C56.3217 16.4669 57.6706 16.3887 59.0167 16.4499Z" fill="#D97B38"/>
<path d="M58.4917 71.3416C60.5736 70.9931 62.6808 70.8175 64.7917 70.8166H74.7083C77.975 70.8166 82.525 71.1082 86.375 71.1082C92.2083 71.1082 98.0417 70.8166 103.875 70.6999C109.708 70.5832 116.183 69.0666 122.425 68.7166C124.949 68.5124 127.485 68.5124 130.008 68.7166C130.524 68.7857 131.047 68.6551 131.47 68.3515C131.893 68.0479 132.184 67.5942 132.283 67.0833C132.325 66.8224 132.313 66.556 132.25 66.2996C132.187 66.0432 132.073 65.8019 131.916 65.59C131.758 65.3781 131.56 65.1998 131.333 65.0656C131.105 64.9313 130.853 64.8438 130.592 64.8082C127.931 64.3714 125.238 64.1567 122.542 64.1666C122.542 64.1666 89.8167 64.5166 89.2916 64.5166C84.3333 64.5166 79.4333 65.1582 74.5333 65.5666C71.2083 65.8582 67.825 66.0333 64.5 66.4416C62.1978 66.7374 59.9178 67.1856 57.675 67.7832C57.4355 67.83 57.2085 67.9264 57.0085 68.0661C56.8084 68.2059 56.6398 68.3859 56.5135 68.5946C56.3872 68.8033 56.3059 69.0362 56.2748 69.2782C56.2438 69.5202 56.2637 69.7661 56.3333 69.9999C56.381 70.2329 56.4757 70.4537 56.6117 70.6489C56.7476 70.8441 56.9219 71.0095 57.1239 71.1351C57.3258 71.2606 57.5513 71.3437 57.7865 71.3792C58.0217 71.4147 58.2616 71.4019 58.4917 71.3416Z" fill="#D97B38"/>
<path d="M133.333 118.767L112.742 116.667L101.717 115.617C97.9833 115.617 94.25 115.208 90.575 115.208C85.5628 115.248 80.5571 115.579 75.5833 116.2C71.7333 116.725 67.7083 116.842 63.9166 117.367C62.1472 117.584 60.3935 117.915 58.6666 118.358C58.2102 118.459 57.8125 118.737 57.5609 119.13C57.3093 119.524 57.2244 120.002 57.325 120.458C57.4255 120.915 57.7033 121.312 58.0971 121.564C58.4909 121.816 58.9686 121.9 59.425 121.8C61.0253 121.526 62.6435 121.37 64.2666 121.333C68.175 121.333 72.2 121.625 75.9333 121.333L112.333 122.267H126.8H132.633C132.894 122.293 133.157 122.269 133.408 122.194C133.659 122.119 133.892 121.995 134.096 121.83C134.299 121.665 134.467 121.461 134.592 121.231C134.716 121 134.794 120.748 134.821 120.487C134.848 120.227 134.823 119.964 134.748 119.713C134.673 119.462 134.549 119.228 134.384 119.025C134.219 118.822 134.015 118.653 133.785 118.529C133.555 118.405 133.302 118.327 133.042 118.3L133.333 118.767Z" fill="#D97B38"/>
<path d="M19.525 29.75C21.9428 30.1291 24.4179 29.8651 26.7013 28.9845C28.9847 28.1039 30.9962 26.6377 32.5333 24.7333C34.2532 22.3018 35.1152 19.3671 34.9833 16.3916C35.2871 13.4952 34.7406 10.5729 33.4106 7.98194C32.0806 5.39098 30.0248 3.24351 27.4942 1.8019C24.9637 0.36029 22.068 -0.313025 19.161 -0.135779C16.2541 0.0414674 13.4617 1.0616 11.125 2.79997C9.41166 3.79784 7.93409 5.15402 6.79336 6.77574C5.65263 8.39747 4.87566 10.2465 4.51562 12.1962C4.15558 14.146 4.22095 16.1506 4.70727 18.0727C5.19358 19.9949 6.08936 21.7894 7.33333 23.3333C8.84122 25.1548 10.6949 26.6596 12.7874 27.761C14.8799 28.8623 17.1698 29.5383 19.525 29.75ZM14.3333 7.23331C16.6667 5.42497 29.675 -0.583359 30.1417 14.7C30.3775 17.0544 29.7103 19.4105 28.275 21.2916C27.228 22.2668 25.9536 22.9645 24.5679 23.3211C23.1822 23.6777 21.7294 23.6819 20.3417 23.3333C17.3647 23.0036 14.6286 21.5415 12.7 19.25C11.9534 18.3807 11.3994 17.3631 11.0747 16.2642C10.75 15.1653 10.662 14.01 10.8163 12.8746C10.9706 11.7392 11.3639 10.6493 11.9701 9.67694C12.5763 8.70456 13.3818 7.87171 14.3333 7.23331Z" fill="#020202"/>
<path d="M10.3083 56.6416C6.3237 59.1625 3.35079 63.0025 1.90827 67.4916C1.38435 69.5959 1.28474 71.7836 1.61524 73.9268C1.94575 76.0701 2.69975 78.1261 3.83327 79.9749C6.13316 83.6367 9.70733 86.3173 13.8666 87.4999C15.242 87.828 16.6527 87.9847 18.0666 87.9666C19.3997 87.9247 20.7268 87.7685 22.0333 87.4999C26.0261 86.624 29.6008 84.4126 32.1674 81.231C34.7339 78.0494 36.1387 74.0876 36.1499 69.9999C36.1035 67.0158 35.2489 64.1001 33.6772 61.5631C32.1055 59.026 29.8755 56.9625 27.2243 55.592C24.5731 54.2215 21.6 53.5954 18.6213 53.7802C15.6426 53.965 12.7697 54.9539 10.3083 56.6416ZM20.7499 81.1416C19.8473 81.3252 18.9293 81.4228 18.0083 81.4332C17.1625 81.457 16.3177 81.3588 15.4999 81.1416C12.896 80.4505 10.6472 78.8056 9.19993 76.5332C7.61941 74.2998 6.98999 71.5304 7.44993 68.8332C8.18953 65.4561 10.114 62.4556 12.8749 60.3749C14.5645 59.0286 16.6123 58.2083 18.7641 58.016C20.9159 57.8237 23.0767 58.2677 24.9782 59.2931C26.8798 60.3184 28.4382 61.8798 29.4598 63.7833C30.4815 65.6868 30.9214 67.8485 30.7249 69.9999C30.6306 72.7313 29.5803 75.3429 27.7573 77.3791C25.9343 79.4153 23.4543 80.7469 20.7499 81.1416Z" fill="#020202"/>
<path d="M12.9917 108.092C8.5379 110.145 4.94583 113.695 2.84166 118.125C1.10998 121.544 0.517217 125.428 1.14999 129.208C1.70451 132.018 3.20797 134.551 5.40832 136.383C7.58123 137.973 10.0705 139.077 12.7074 139.621C15.3443 140.164 18.0672 140.134 20.6917 139.533C23.3576 139.124 25.8793 138.056 28.0285 136.426C30.1777 134.797 31.8864 132.657 33 130.2C34.4304 126.563 34.4304 122.52 33 118.883C27.1667 102.025 14.45 107.392 12.9917 108.092ZM28.0417 128.333C27.1421 129.808 25.8962 131.042 24.4121 131.926C22.9279 132.81 21.2504 133.319 19.525 133.408C17.819 133.769 16.0553 133.758 14.3541 133.375C12.6529 132.993 11.0541 132.248 9.66666 131.192C8.9935 130.64 8.43952 129.958 8.03839 129.186C7.63727 128.414 7.39738 127.568 7.33332 126.7C7.13011 124.599 7.43004 122.479 8.20832 120.517C9.46544 117.087 11.8516 114.186 14.975 112.292C24.1917 107.158 28.1 118.708 28.5667 120.342C29.4113 122.976 29.2236 125.832 28.0417 128.333Z" fill="#020202"/>
</svg>
