<svg width="141" height="149" viewBox="0 0 141 149" fill="none" xmlns="http://www.w3.org/2000/svg">
<path fill-rule="evenodd" clip-rule="evenodd" d="M89.4971 91.8826C89.4971 91.8826 90.2421 93.9934 91.2976 94.1796C91.6915 94.3813 92.1277 94.4864 92.5703 94.4864C93.0128 94.4864 93.449 94.3813 93.843 94.1796C94.0726 93.897 94.2318 93.5639 94.3073 93.2077C94.3829 92.8515 94.3727 92.4824 94.2776 92.1309C93.1017 87.6899 90.9547 83.5653 87.9915 80.0546C85.0284 76.5439 81.323 73.7347 77.1426 71.8296C80.5209 69.9275 83.1604 66.9433 84.6357 63.3579C86.111 59.7725 86.3362 55.7948 85.2748 52.0658C84.2135 48.3369 81.9276 45.0739 78.7854 42.8027C75.6432 40.5315 71.8279 39.3844 67.9542 39.5463C43.5555 41.0984 43.1209 66.3663 55.9101 72.8851C52.0451 74.7191 48.6625 77.4314 46.0323 80.8053C43.4021 84.1793 41.5972 88.1215 40.7617 92.3171C40.7617 94.2417 44.1763 94.6763 44.7971 92.3171C51.8746 72.823 79.3155 66.2421 89.4971 91.8826ZM53.9234 63.3242C51.4401 54.6946 55.7859 47.2446 68.4509 46.3134C69.944 46.2022 71.4441 46.4008 72.8568 46.8967C74.2696 47.3927 75.5646 48.1753 76.6606 49.1955C77.7565 50.2157 78.6298 51.4514 79.2255 52.825C79.8213 54.1987 80.1267 55.6807 80.1226 57.178C80.6192 72.4505 57.2759 75.1821 53.9234 63.3242Z" fill="#D97B38"/>
<path fill-rule="evenodd" clip-rule="evenodd" d="M138.417 42.961C137.672 36.7527 137.859 22.4735 133.202 18.9348C127.167 15.2174 120.291 13.0822 113.212 12.7264C112.691 12.7133 112.185 12.8927 111.789 13.2303C111.393 13.5679 111.136 14.0399 111.066 14.5556C110.997 15.0713 111.121 15.5944 111.413 16.0245C111.706 16.4546 112.148 16.7614 112.653 16.886C119.02 17.4243 125.148 19.5596 130.471 23.0943C133.078 25.2052 133.016 39.0498 133.513 44.0785C135.437 61.3048 135.437 78.6918 133.513 95.9181C133.209 101.719 132.251 107.467 130.657 113.053C115.943 121 14.8095 125.966 8.9737 115.847C7.69737 111.339 7.00875 106.686 6.92495 102.002C7.73204 101.63 34.6141 102.002 35.1108 102.002C65.5316 102.747 64.4141 100.761 114.391 101.381C129.043 100.947 128.608 97.1598 114.391 96.7873C114.391 96.7873 84.1566 95.9181 55.7225 96.2906C30.8891 96.6631 6.86287 98.4014 6.61454 98.4635C4.9381 76.6009 4.9381 54.642 6.61454 32.7793C8.35287 20.3627 10.8983 20.3627 15.865 18.7485C24.867 16.2031 28.6541 17.6931 28.2816 14.651C28.3474 14.3864 28.3523 14.1103 28.2958 13.8435C28.2393 13.5768 28.123 13.3263 27.9556 13.1111C27.7882 12.8958 27.5741 12.7214 27.3294 12.601C27.0848 12.4806 26.816 12.4174 26.5433 12.416C21.2041 12.9748 10.712 14.2164 7.35954 18.1277C4.71239 21.9707 3.04952 26.405 2.51704 31.041C-0.711297 50.7214 -0.462964 110.818 3.63454 117.958C8.41495 127.27 37.1595 127.767 47.962 127.891C45.2639 132.368 44.0472 137.582 44.4854 142.791L32.0687 143.722C31.6407 143.801 31.254 144.028 30.9756 144.362C30.6972 144.697 30.5448 145.118 30.5448 145.554C30.5448 145.989 30.6972 146.41 30.9756 146.745C31.254 147.08 31.6407 147.306 32.0687 147.385C47.4709 148.673 62.9338 149.088 78.3829 148.627C86.5779 148.254 94.9591 147.323 103.216 146.64C103.706 146.555 104.15 146.3 104.471 145.919C104.791 145.539 104.966 145.058 104.966 144.56C104.966 144.063 104.791 143.582 104.471 143.201C104.15 142.821 103.706 142.566 103.216 142.481H92.4758C91.7625 136.933 90.1917 131.529 87.8195 126.463C98.5166 125.677 109.167 124.351 119.73 122.49C140.342 118.516 137.486 116.281 139.907 96.1043C141.372 78.3892 140.872 60.5663 138.417 42.961ZM49.2037 142.791C51.6494 138.26 53.1291 133.271 53.5495 128.139C63.0483 128.139 72.1745 127.767 81.7354 127.146C82.4164 132.672 84.3717 137.964 87.447 142.605C70.4983 141.922 62.6758 141.798 49.2037 142.791Z" fill="#020202"/>
<path fill-rule="evenodd" clip-rule="evenodd" d="M44.857 29.365C50.3204 31.6077 56.3234 32.1907 62.1162 31.0413C70.8414 31.3125 79.5726 30.7512 88.1912 29.365C91.6058 28.4959 100.235 28.9925 101.477 22.4117C101.779 17.8225 101.779 13.2184 101.477 8.62918C101.392 8.13921 101.137 7.69497 100.756 7.37478C100.376 7.05459 99.8945 6.87902 99.3973 6.87902C98.9 6.87902 98.4186 7.05459 98.0382 7.37478C97.6577 7.69497 97.4024 8.13921 97.3175 8.62918C96.8829 20.3629 97.3175 18.1279 97.3175 20.2388C97.3175 22.3496 97.3175 22.7842 93.8408 23.405C91.6679 23.7775 89.3087 23.7154 87.26 24.15C74.0876 25.3806 60.8101 24.8587 47.775 22.5979C47.3537 22.0945 47.1327 21.4536 47.1541 20.7975C46.9146 16.6262 47.2912 12.4424 48.2716 8.38085C48.9755 7.76292 49.8 7.29783 50.6929 7.01502C65.0362 4.51925 79.6335 3.81024 94.1512 4.90419C94.3836 4.95718 94.6241 4.96389 94.859 4.92393C95.094 4.88397 95.3188 4.79812 95.5205 4.67129C95.7223 4.54446 95.8971 4.37914 96.035 4.18474C96.1729 3.99035 96.2711 3.77071 96.3241 3.53835C96.3771 3.30599 96.3838 3.06547 96.3439 2.83052C96.3039 2.59557 96.2181 2.37079 96.0912 2.16902C95.9644 1.96725 95.7991 1.79243 95.6047 1.65455C95.4103 1.51667 95.1907 1.41843 94.9583 1.36543C79.3099 -0.869208 63.4234 -0.869208 47.775 1.36543C46.0417 1.80152 44.4606 2.70286 43.2023 3.97208C41.9441 5.2413 41.0564 6.83018 40.6354 8.5671C40.2554 10.6132 40.1303 12.6985 40.2629 14.7754C40.2008 19.5559 38.2141 25.9504 44.857 29.365Z" fill="#020202"/>
<path fill-rule="evenodd" clip-rule="evenodd" d="M67.5191 10.9263C66.7391 11.324 66.0952 11.945 65.6694 12.7101C65.2437 13.4752 65.0555 14.3497 65.1287 15.2222C65.202 16.0947 65.5334 16.9256 66.0808 17.609C66.6281 18.2923 67.3666 18.7972 68.2021 19.0593C71.0579 20.3009 76.8937 17.2588 75.1554 13.4097C74.3828 12.1584 73.1912 11.222 71.7928 10.7672C70.3944 10.3125 68.8799 10.3688 67.5191 10.9263Z" fill="#020202"/>
</svg>
